<?xml version="1.0" encoding="UTF-8"?>
<!DOCTYPE svg PUBLIC "-//W3C//DTD SVG 1.1//EN" "http://www.w3.org/Graphics/SVG/1.1/DTD/svg11.dtd">
<!-- Creator: CorelDRAW 2021.5 -->
<svg xmlns="http://www.w3.org/2000/svg" xml:space="preserve" width="2.00964in" height="1.88375in" version="1.1" shape-rendering="geometricPrecision" text-rendering="geometricPrecision" image-rendering="optimizeQuality" fill-rule="evenodd" clip-rule="evenodd"
viewBox="0 0 2003.67 1878.16"
 xmlns:xlink="http://www.w3.org/1999/xlink"
 xmlns:xodm="http://www.corel.com/coreldraw/odm/2003">
 <g id="Layer_x0020_1">
  <metadata id="CorelCorpID_0Corel-Layer"/>
  <g id="_1944614018608">
   <path fill="black" fill-rule="nonzero" d="M357.52 956.38c-67.68,32.84 -179.98,44.62 -245.81,-1.18 -136.55,-95.13 -135.2,-230.49 -63.98,-366.7 60.44,-116.17 175.43,-195.31 291.44,-234.03 99.56,-33.22 158.38,-56.41 176.44,-69.54 43.44,-31.31 84.58,-56.9 123.42,-76.78 5.05,-2.58 8.75,-6.45 11.12,-11.61 5.04,-10.95 6.9,-23.91 17.5,-34.69 71.72,-73.74 188.74,-89.9 282.35,-96.13 3.05,-0.26 5.41,-2.81 5.41,-5.88 0,-1.08 -0.29,-2.13 -0.86,-3.05 -8.53,-14.03 -11.23,-26.21 -8.09,-36.53 1.77,-5.7 5.77,-10.19 11.03,-12.58 36.31,-16.98 62.21,-5.83 77.7,33.46 2.13,5.39 6.29,8.48 12.46,9.26 130.98,15.49 276.79,21.89 351.04,150.01 2.36,4.16 5.55,7.58 9.59,10.27 25.14,16.72 69.65,49.28 133.52,97.65 32.1,24.36 59.77,41.08 83,50.17 88.9,34.85 163.48,84.86 241.94,150.18 105.07,87.21 203.22,265.51 78.46,385.22 -52.03,49.84 -158.26,40.58 -221.57,19.87 -5.95,-1.91 -9.37,0.23 -10.27,6.4 -7.86,52.64 -8.48,85.98 -1.85,100.01 51.07,108.65 86.77,222.92 107.08,342.79 0.91,5.45 4.05,10.21 8.68,13.18 19.1,12.58 39.98,15.28 56.82,37 152.37,195.81 -11.78,516.55 -274.27,457.95 -22.39,-5.04 -34.85,-20.54 -53.03,-32.66 -4.38,-2.91 -9.2,-3.87 -14.48,-2.86 -202.54,39.06 -418.73,45.97 -629.35,38.22 -48.83,-1.79 -105.74,-6.9 -170.72,-15.32 -35.81,-4.71 -93.61,-12.07 -173.42,-22.06 -5.72,-0.78 -11.17,0 -16.33,2.36 -152.37,68.03 -316.53,1.52 -364.52,-160.62 -22.78,-77.45 -21.15,-154.45 4.89,-231 6.63,-19.65 33.22,-47.36 79.8,-83.17 4.52,-3.6 7.23,-8.63 7.8,-14.14 3.83,-33.01 2.14,-68.53 11.57,-104.23 19.87,-75.88 40.91,-142.38 63.13,-199.51 11.45,-29.13 9.42,-50.68 12.46,-82.67 0.89,-8.31 -2.47,-10.67 -10.1,-7.08z"/>
   <path fill="#A55B2C" fill-rule="nonzero" d="M1004.38 73.14c0.79,-8.53 -4.21,-17 -14.98,-25.42 -3.82,-3.03 -3.98,-5.22 -0.5,-6.57 0.34,-0.22 1.91,-0.22 4.71,0 1.23,0.11 2.19,0.73 2.86,1.85 13.13,25.08 21.55,38.05 52.53,38.39 99,1.01 232.85,23.74 306.1,101.69 5.7,6.03 8.89,14.03 8.89,22.34 0,10.42 -5,20.22 -13.44,26.32 -84.01,60.96 -232.34,67.69 -355.92,68.53 -48.65,0.34 -108.93,-10.95 -164.49,-14.48 -46.31,-2.87 -125.26,-33.34 -140.93,-81.99 -1.79,-5.51 -0.95,-10.56 2.53,-15.16 58.08,-77.78 196.82,-96.3 290.43,-95.46 11.85,-0.2 21.32,-9.01 22.26,-20.38l-0.04 0.35z"/>
   <path fill="#F3EA61" fill-rule="nonzero" d="M553.49 1780.53c-46.13,33.22 -97.93,44.45 -155.4,33.67 -165.84,-30.98 -242.27,-246.66 -145.3,-377.65 13.13,-17.68 61.12,-31.81 83.17,-31.31 116.63,3.03 182.23,64.32 196.82,183.86 1.12,9.2 6.4,12.57 15.83,10.1 5.5,-1.46 8.87,-5 10.1,-10.61 25.59,-117.35 -71.56,-211.63 -181.84,-224.77 -20.76,-2.47 -35.47,-4.37 -44.11,-5.72 -6.06,-0.9 -9.15,-4.38 -9.27,-10.45 -1.85,-100.01 37.04,-204.89 76.61,-295.48 8.53,-19.75 12.35,-39.9 11.45,-60.44 -1.68,-33.17 -4.71,-52.03 2.87,-83.68 8.58,-37.22 2.52,-72.06 12.46,-105.74 27.72,-95.29 66.17,-180.04 115.33,-254.23 3.71,-5.73 4.32,-11.06 1.85,-16 -2.12,-4.29 -6.52,-7.02 -11.31,-7.02 -3.33,0 -6.52,1.32 -8.88,3.66 -71.73,71.05 -110.29,177.45 -139.42,275.78 -7.23,24.58 -5.38,45.8 -7.07,68.52 -0.4,5.56 -2.84,10.8 -6.84,14.6 -78.52,74.64 -197.22,82.72 -270.8,-2.14 -53.88,-62.18 -67.35,-132.67 -40.41,-211.46 35.36,-103.49 100.35,-182.9 194.97,-238.24 6.73,-3.93 61.29,-26.15 163.65,-66.67 82.95,-32.78 160.56,-75.15 232.85,-127.12 3.97,-2.86 8.73,-4.4 13.61,-4.4 6.38,0 12.49,2.63 16.87,7.26 27.61,29.07 64.37,48.26 110.28,57.57 169.38,34.01 336.84,29.86 502.4,-12.46 30.98,-7.91 57.08,-24.58 82.84,-35.19 5.39,-2.21 11.45,-1.64 16.16,1.52 91.42,59.44 155.23,119.04 253.72,162.81 125.1,55.56 275.95,160.62 310.47,305.92 15.83,66 -14.14,141.76 -86.04,154.39 -64.48,11.45 -154.89,7.91 -195.3,-50.18 -15.72,-22.79 -29.75,-48.04 -42.1,-75.76 -18.18,-40.86 -48.65,-109.78 -91.42,-206.75 -4.6,-10.33 -11.39,-12.23 -20.37,-5.72l-5.73 4.04c-11.78,8.53 -14.42,18.97 -7.91,31.32 48.66,91.76 76.1,188.74 138.39,285.88 30.81,47.99 21.72,91.76 10.27,144.46 -1.23,5.73 -0.39,11.12 2.53,16.16 56.46,99.11 94.11,211.41 112.97,336.9 0.87,5.84 -2.78,11.38 -8.47,12.98 -99.79,27.93 -170.83,73.73 -204.17,171.21 -3.59,10.43 -2.58,23.91 3.03,40.41 1.13,3.36 5.67,5.39 13.64,6.06 7.18,0.56 12.12,-2.52 14.82,-9.26 33.67,-84.85 73.52,-132.61 119.54,-143.28 61.29,-13.97 116,-24.58 152.88,34.69 45.8,73.18 47.59,151.19 5.39,234.03 -38.5,75.54 -99.5,118.36 -183.01,128.46 -25.93,3.03 -50.62,-1.12 -74.09,-12.46 -20.03,-9.76 -28.96,-32.33 -42.42,-46.3 -4.49,-4.82 -9.09,-6.06 -13.81,-3.7 -27.95,14.14 -53.71,25.59 -87.72,30.13 -110.11,14.59 -190.48,23.86 -241.1,27.78 -68.47,5.39 -195.59,5.28 -381.35,-0.34 -30.75,-1.01 -67.01,-5.11 -108.76,-12.29 -49.34,-8.59 -124.26,-0.68 -167.36,-36.71 -5.16,-4.38 -10.49,-4.61 -16,-0.68zm179.48 -1131.42c0,-16.36 -13.26,-29.63 -29.63,-29.63 -16.37,0 -29.64,13.27 -29.64,29.63 0,16.37 13.27,29.64 29.64,29.64 16.36,0 29.63,-13.27 29.63,-29.64l-0 0zm629.34 33.27c0.21,0.04 0.21,0.04 0.21,0.04 14.23,2.25 27.88,-9.18 30.47,-25.52 0,0 0,0 0,0 2.58,-16.34 -6.86,-31.43 -21.09,-33.68 0,0 0,0 0,0 0,0 0,0 0,0 -14.24,-2.25 -27.88,9.18 -30.47,25.53 0,0 0,0 0,0 -2.59,16.34 6.86,31.43 21.09,33.68 0,0 0,0 0,0l-0.21 -0.04zm-322.74 151.43c39.9,20.03 114.66,50.84 137.89,8.08 10.44,-19.2 11.73,-36.7 3.88,-52.53 -8.64,-17.51 -15.32,-16.39 -20.04,3.36 0,0.22 -1.06,8.76 -3.2,25.59 -1.91,15.38 -10.55,22.23 -25.92,20.54 -36.03,-3.81 -60.61,-12.35 -73.74,-25.59 -4.16,-4.04 -5.89,-8.93 -5.22,-14.65 4.04,-38.95 17.34,-68.7 39.9,-89.24 4.14,-3.79 6.5,-9.15 6.5,-14.76 0,-9.15 -6.21,-17.15 -15.08,-19.41 -16.05,-4.04 -36.59,-3.87 -61.62,0.5 -9.21,1.68 -15.9,9.69 -15.9,19.05 0,4.77 1.77,9.39 4.96,12.94 37.37,41.97 32.49,79.81 -14.65,113.47 -19.98,14.26 -40.8,18.07 -62.46,11.45 -2.34,-0.72 -4.66,-1.9 -6.72,-3.45 -9.36,-7.05 -11.5,-20 -4.79,-28.91 1.5,-1.99 3.38,-3.67 5.52,-4.95l15.41 -9.32c4.94,-3.03 6.79,-7.69 5.56,-13.97 -0.45,-2.58 -1.57,-4.77 -3.37,-6.56 -3.14,-3.03 -7.69,-3.65 -13.64,-1.86 -76.6,22.39 -30.14,127.96 60.27,82 7.07,-3.6 17.46,-7.8 31.15,-12.63 5.28,-1.91 10.38,-1.63 15.32,0.84zm310.63 102.7c12.11,1.18 23.41,7.74 30.64,17.94 21.05,30.05 35.03,69.78 68.53,89.48 27.39,16.27 56.35,22.39 86.88,18.35 4.74,-0.67 8.28,-4.69 8.25,-9.42l0 -8.27c0,-9.65 -4.82,-14.87 -14.48,-15.65 -46.24,-3.93 -76.78,-20.43 -91.59,-49.5 -16.5,-31.87 -27.95,-51.35 -34.34,-58.42 -39.9,-43.95 -109.1,-23.91 -149.85,5.55 -57.92,42.1 -73.07,125.26 -44.61,188.91 43.89,98.78 125.15,167.58 243.79,206.42 4.83,1.57 16.22,1.07 34.18,-1.52 5.61,-0.78 8.59,-5.05 8.93,-12.8 0.34,-5.72 -2.14,-9.7 -7.41,-11.95 -10.88,-4.38 -35.36,-14.37 -73.4,-29.97 -73.74,-30.3 -188.74,-127.79 -182.51,-219.38 4.38,-62.63 53.2,-116 117.01,-109.78zm-559.99 10.44c60.28,21.72 81.49,90.75 58.59,149.17 -33.5,85.36 -178.97,124.25 -258.61,120.05 -41.08,-2.13 -67.46,-3.6 -79.13,-4.38 -5.73,-0.23 -9.65,2.35 -11.78,7.74 -3.03,7.07 -2.19,12.18 2.52,15.32 15.15,9.99 25.26,15.32 30.3,16 123.69,15.71 226.51,-11.68 308.45,-82.16 52.87,-45.29 74.75,-126.94 40.57,-189.75 -24.24,-43.94 -78.11,-91.59 -133.01,-69.03 -8.76,3.59 -27.44,16.27 -56.06,38.05 -25.82,19.98 -60.45,21.83 -103.88,5.55 -8.98,-3.47 -15.55,-0.84 -19.7,7.92l-3.53 7.41c-2.1,4.35 -0.62,9.54 3.43,12.17 25.77,16.69 54.53,23.52 86.3,20.49 38.56,-3.36 68.19,-33.34 99.84,-51.35 10.98,-6.24 24.03,-7.39 35.77,-3.17l-0.08 -0.02z"/>
   <circle fill="black" fill-rule="nonzero" cx="703.34" cy="649.11" r="29.63"/>
   <ellipse fill="black" fill-rule="nonzero" transform="matrix(-0.264772 1.59936 -1.59936 -0.264772 1367.21 652.82)" rx="18.48" ry="16.1"/>
   <path fill="black" fill-rule="nonzero" d="M1024.25 832.97c-13.7,4.83 -24.08,9.04 -31.15,12.63 -90.41,45.96 -136.88,-59.61 -60.27,-82 5.95,-1.79 10.49,-1.18 13.64,1.86 1.79,1.79 2.92,3.98 3.37,6.56 1.23,6.28 -0.62,10.94 -5.56,13.97l-15.32 9.26c-2.24,1.34 -4.11,3.02 -5.61,5.01 -6.71,8.91 -4.57,21.85 4.79,28.91 2.06,1.55 4.38,2.74 6.83,3.49 21.59,6.61 42.37,2.78 62.35,-11.48 47.14,-33.68 52.02,-71.5 14.65,-113.48 -3.19,-3.54 -4.96,-8.16 -4.96,-12.94 0,-9.36 6.69,-17.38 15.9,-19.05 25.03,-4.38 45.57,-4.54 61.62,-0.5 8.87,2.27 15.08,10.26 15.08,19.41 0,5.61 -2.36,10.97 -6.49,14.77 -22.56,20.53 -35.86,50.28 -39.9,89.23 -0.67,5.72 1.06,10.61 5.22,14.65 13.13,13.24 37.71,21.78 73.74,25.59 15.38,1.68 24.02,-5.16 25.92,-20.54 2.13,-16.84 3.2,-25.37 3.2,-25.59 4.71,-19.76 11.39,-20.88 20.04,-3.36 7.85,15.83 6.56,33.33 -3.88,52.53 -23.23,42.76 -97.99,11.95 -137.89,-8.08 -4.94,-2.47 -10.04,-2.76 -15.32,-0.84z"/>
   <path fill="black" fill-rule="nonzero" d="M1350.2 936.51c-63.81,-6.23 -112.63,47.15 -117.01,109.78 -6.23,91.59 108.77,189.07 182.51,219.38 38.04,15.6 62.51,25.59 73.4,29.97 5.28,2.25 7.75,6.23 7.41,11.95 -0.34,7.74 -3.32,12.02 -8.93,12.8 -17.96,2.58 -29.35,3.09 -34.18,1.52 -118.64,-38.84 -199.91,-107.64 -243.79,-206.42 -28.46,-63.64 -13.31,-146.81 44.61,-188.91 40.74,-29.46 109.94,-49.5 149.85,-5.55 6.39,7.07 17.85,26.55 34.34,58.42 14.82,29.07 45.35,45.57 91.59,49.5 9.66,0.79 14.48,6.01 14.48,15.65l0 8.25c0.03,4.73 -3.51,8.76 -8.26,9.42 -30.52,4.04 -59.48,-2.08 -86.86,-18.35 -33.5,-19.7 -47.48,-59.43 -68.36,-89.23 -7.4,-10.45 -18.7,-17.01 -31.11,-18.21l0.3 0.03z"/>
   <path fill="black" fill-rule="nonzero" d="M790.22 946.96c-11.66,-4.19 -24.71,-3.04 -35.62,3.16 -31.72,18.04 -61.35,48.02 -99.91,51.38 -31.77,3.03 -60.56,-3.82 -86.37,-20.54 -3.98,-2.58 -5.47,-7.77 -3.4,-12.05l3.56 -7.48c4.15,-8.76 10.72,-11.39 19.7,-7.92 43.44,16.28 78.07,14.43 103.88,-5.55 28.62,-21.77 47.3,-34.46 56.06,-38.05 54.89,-22.56 108.76,25.09 133.01,69.03 34.18,62.8 12.3,144.46 -40.57,189.75 -81.93,70.49 -184.76,97.88 -308.45,82.16 -5.05,-0.68 -15.15,-6.01 -30.3,-16 -4.71,-3.14 -5.55,-8.25 -2.52,-15.32 2.13,-5.39 6.06,-7.97 11.78,-7.74 11.67,0.78 38.05,2.24 79.13,4.38 79.64,4.2 225.11,-34.69 258.61,-120.05 22.9,-58.42 1.69,-127.45 -58.59,-149.17z"/>
  </g>
 </g>
</svg>
